<svg id="visual" viewBox="0 0 1024 693" width="1024" height="693" xmlns="http://www.w3.org/2000/svg" xmlns:xlink="http://www.w3.org/1999/xlink" version="1.1"><rect width="1024" height="693" fill="#FFFFFF"></rect><g><g transform="translate(645 410)"><path d="M0 -105.1L74.3 -74.3L105.1 0L74.3 74.3L0 105.1L-74.3 74.3L-105.1 0L-74.3 -74.3Z" fill="#F7E4DF"></path></g><g transform="translate(94 668)"><path d="M0 -94L66.5 -66.5L94 0L66.5 66.5L0 94L-66.5 66.5L-94 0L-66.5 -66.5Z" fill="#F7E4DF"></path></g><g transform="translate(25 221)"><path d="M0 -92L65.1 -65.1L92 0L65.1 65.1L0 92L-65.1 65.1L-92 0L-65.1 -65.1Z" fill="#F7E4DF"></path></g><g transform="translate(455 8)"><path d="M0 -78L55.2 -55.2L78 0L55.2 55.2L0 78L-55.2 55.2L-78 0L-55.2 -55.2Z" fill="#F7E4DF"></path></g><g transform="translate(925 260)"><path d="M0 -88L62.2 -62.2L88 0L62.2 62.2L0 88L-62.2 62.2L-88 0L-62.2 -62.2Z" fill="#F7E4DF"></path></g></g></svg>