<svg id="visual" viewBox="0 0 900 600" width="900" height="600" xmlns="http://www.w3.org/2000/svg" xmlns:xlink="http://www.w3.org/1999/xlink" version="1.1"><rect x="0" y="0" width="900" height="600" fill="#ffffff"></rect><defs><linearGradient id="grad1_0" x1="33.3%" y1="0%" x2="100%" y2="100%"><stop offset="20%" stop-color="#f7e4df" stop-opacity="1"></stop><stop offset="80%" stop-color="#f7e4df" stop-opacity="1"></stop></linearGradient></defs><defs><linearGradient id="grad1_1" x1="33.3%" y1="0%" x2="100%" y2="100%"><stop offset="20%" stop-color="#f7e4df" stop-opacity="1"></stop><stop offset="80%" stop-color="#faedea" stop-opacity="1"></stop></linearGradient></defs><defs><linearGradient id="grad1_2" x1="33.3%" y1="0%" x2="100%" y2="100%"><stop offset="20%" stop-color="#fcf6f4" stop-opacity="1"></stop><stop offset="80%" stop-color="#faedea" stop-opacity="1"></stop></linearGradient></defs><defs><linearGradient id="grad1_3" x1="33.3%" y1="0%" x2="100%" y2="100%"><stop offset="20%" stop-color="#fcf6f4" stop-opacity="1"></stop><stop offset="80%" stop-color="#ffffff" stop-opacity="1"></stop></linearGradient></defs><defs><linearGradient id="grad2_0" x1="0%" y1="0%" x2="66.7%" y2="100%"><stop offset="20%" stop-color="#f7e4df" stop-opacity="1"></stop><stop offset="80%" stop-color="#f7e4df" stop-opacity="1"></stop></linearGradient></defs><defs><linearGradient id="grad2_1" x1="0%" y1="0%" x2="66.7%" y2="100%"><stop offset="20%" stop-color="#faedea" stop-opacity="1"></stop><stop offset="80%" stop-color="#f7e4df" stop-opacity="1"></stop></linearGradient></defs><defs><linearGradient id="grad2_2" x1="0%" y1="0%" x2="66.7%" y2="100%"><stop offset="20%" stop-color="#faedea" stop-opacity="1"></stop><stop offset="80%" stop-color="#fcf6f4" stop-opacity="1"></stop></linearGradient></defs><defs><linearGradient id="grad2_3" x1="0%" y1="0%" x2="66.7%" y2="100%"><stop offset="20%" stop-color="#ffffff" stop-opacity="1"></stop><stop offset="80%" stop-color="#fcf6f4" stop-opacity="1"></stop></linearGradient></defs><g transform="translate(900, 0)"><path d="M0 324.5C-56.4 315.8 -112.9 307.2 -162.2 281C-211.6 254.9 -253.9 211.3 -279.7 161.5C-305.6 111.7 -315 55.9 -324.5 0L0 0Z" fill="#fefafa"></path><path d="M0 243.4C-42.3 236.9 -84.7 230.4 -121.7 210.8C-158.7 191.2 -190.4 158.4 -209.8 121.1C-229.2 83.8 -236.3 41.9 -243.4 0L0 0Z" fill="#fbf1ef"></path><path d="M0 162.2C-28.2 157.9 -56.4 153.6 -81.1 140.5C-105.8 127.4 -126.9 105.6 -139.9 80.8C-152.8 55.9 -157.5 27.9 -162.2 0L0 0Z" fill="#f8e8e4"></path><path d="M0 81.1C-14.1 79 -28.2 76.8 -40.6 70.3C-52.9 63.7 -63.5 52.8 -69.9 40.4C-76.4 27.9 -78.8 14 -81.1 0L0 0Z" fill="#f7e4df"></path></g><g transform="translate(0, 600)"><path d="M0 -324.5C55.1 -313.7 110.1 -302.8 160 -277.1C209.9 -251.4 254.5 -210.9 281 -162.2C307.6 -113.6 316 -56.8 324.5 0L0 0Z" fill="#fefafa"></path><path d="M0 -243.4C41.3 -235.2 82.6 -227.1 120 -207.8C157.4 -188.6 190.9 -158.2 210.8 -121.7C230.7 -85.2 237 -42.6 243.4 0L0 0Z" fill="#fbf1ef"></path><path d="M0 -162.2C27.5 -156.8 55.1 -151.4 80 -138.6C104.9 -125.7 127.2 -105.5 140.5 -81.1C153.8 -56.8 158 -28.4 162.2 0L0 0Z" fill="#f8e8e4"></path><path d="M0 -81.1C13.8 -78.4 27.5 -75.7 40 -69.3C52.5 -62.9 63.6 -52.7 70.3 -40.6C76.9 -28.4 79 -14.2 81.1 0L0 0Z" fill="#f7e4df"></path></g></svg>