<svg id="visual" viewBox="0 0 900 600" width="900" height="600" xmlns="http://www.w3.org/2000/svg" xmlns:xlink="http://www.w3.org/1999/xlink" version="1.1"><rect x="0" y="0" width="900" height="600" fill="#ffffff"></rect><path d="M805 600L799.2 585.7C793.3 571.3 781.7 542.7 783.3 514.2C785 485.7 800 457.3 801.5 428.8C803 400.3 791 371.7 772.8 343C754.7 314.3 730.3 285.7 720.8 257C711.3 228.3 716.7 199.7 729 171.2C741.3 142.7 760.7 114.3 767.5 85.8C774.3 57.3 768.7 28.7 765.8 14.3L763 0L900 0L900 14.3C900 28.7 900 57.3 900 85.8C900 114.3 900 142.7 900 171.2C900 199.7 900 228.3 900 257C900 285.7 900 314.3 900 343C900 371.7 900 400.3 900 428.8C900 457.3 900 485.7 900 514.2C900 542.7 900 571.3 900 585.7L900 600Z" fill="#f7dbd3" stroke-linecap="round" stroke-linejoin="miter"></path></svg>