<svg id="visual" viewBox="0 0 900 600" width="900" height="600" xmlns="http://www.w3.org/2000/svg" xmlns:xlink="http://www.w3.org/1999/xlink" version="1.1"><rect x="0" y="0" width="900" height="600" fill="#ffffff"></rect><path d="M97 0L102.8 14.3C108.7 28.7 120.3 57.3 118.7 85.8C117 114.3 102 142.7 100.5 171.2C99 199.7 111 228.3 129.2 257C147.3 285.7 171.7 314.3 181.2 343C190.7 371.7 185.3 400.3 173 428.8C160.7 457.3 141.3 485.7 134.5 514.2C127.7 542.7 133.3 571.3 136.2 585.7L139 600L0 600L0 585.7C0 571.3 0 542.7 0 514.2C0 485.7 0 457.3 0 428.8C0 400.3 0 371.7 0 343C0 314.3 0 285.7 0 257C0 228.3 0 199.7 0 171.2C0 142.7 0 114.3 0 85.8C0 57.3 0 28.7 0 14.3L0 0Z" fill="#f7dbd3" stroke-linecap="round" stroke-linejoin="miter"></path></svg>